<?xml version="1.0" encoding="UTF-8" standalone="no"?>
<svg xmlns="http://www.w3.org/2000/svg" width="666" height="486" viewBox="0 0 666 486">
  <title>AL logo vector</title>
  <desc>Monogram AL with minimalist botanical element.</desc>
  <g fill="#49413f" fill-rule="evenodd">
    <path d="M 117.0 371.0 L 117.0 372.0 L 116.0 373.0 L 115.0 374.0 L 115.0 375.0 L 114.0 376.0 L 113.0 377.0 L 113.0 378.0 L 112.0 379.0 L 112.0 380.0 L 111.0 381.0 L 110.0 382.0 L 110.0 383.0 L 109.0 384.0 L 108.0 385.0 L 108.0 386.0 L 107.0 387.0 L 106.0 388.0 L 106.0 389.0 L 105.0 390.0 L 104.0 391.0 L 103.0 392.0 L 103.0 393.0 L 102.0 394.0 L 101.0 395.0 L 100.0 396.0 L 99.0 397.0 L 98.0 398.0 L 98.0 399.0 L 97.0 400.0 L 96.0 401.0 L 95.0 402.0 L 94.0 403.0 L 93.0 404.0 L 92.0 405.0 L 91.0 406.0 L 90.0 407.0 L 89.0 408.0 L 88.0 409.0 L 87.0 410.0 L 86.0 411.0 L 85.0 412.0 L 84.0 413.0 L 83.0 414.0 L 82.0 415.0 L 81.0 416.0 L 80.0 417.0 L 79.0 417.0 L 78.0 418.0 L 77.0 419.0 L 76.0 420.0 L 75.0 421.0 L 74.0 422.0 L 73.0 422.0 L 72.0 423.0 L 71.0 424.0 L 70.0 425.0 L 69.0 425.0 L 68.0 426.0 L 67.0 427.0 L 66.0 427.0 L 65.0 428.0 L 64.0 429.0 L 63.0 429.0 L 62.0 430.0 L 61.0 431.0 L 60.0 431.0 L 59.0 432.0 L 58.0 432.0 L 57.0 433.0 L 56.0 433.0 L 55.0 434.0 L 54.0 434.0 L 53.0 435.0 L 52.0 435.0 L 51.0 435.0 L 50.0 436.0 L 49.0 436.0 L 48.0 437.0 L 47.0 437.0 L 46.0 437.0 L 45.0 437.0 L 44.0 438.0 L 43.0 438.0 L 42.0 438.0 L 41.0 438.0 L 40.0 438.0 L 40.0 439.0 L 40.0 440.0 L 41.0 440.0 L 42.0 440.0 L 43.0 440.0 L 44.0 440.0 L 45.0 440.0 L 46.0 440.0 L 47.0 440.0 L 48.0 440.0 L 49.0 440.0 L 50.0 440.0 L 51.0 440.0 L 52.0 440.0 L 53.0 440.0 L 54.0 440.0 L 55.0 440.0 L 56.0 440.0 L 57.0 440.0 L 58.0 440.0 L 59.0 440.0 L 60.0 440.0 L 61.0 440.0 L 62.0 440.0 L 63.0 440.0 L 64.0 440.0 L 65.0 440.0 L 66.0 440.0 L 67.0 440.0 L 68.0 440.0 L 69.0 440.0 L 70.0 440.0 L 71.0 440.0 L 72.0 440.0 L 73.0 440.0 L 74.0 440.0 L 75.0 440.0 L 76.0 440.0 L 77.0 440.0 L 78.0 440.0 L 79.0 440.0 L 80.0 440.0 L 81.0 440.0 L 82.0 440.0 L 83.0 440.0 L 84.0 440.0 L 85.0 440.0 L 86.0 440.0 L 87.0 440.0 L 88.0 440.0 L 89.0 440.0 L 90.0 440.0 L 91.0 440.0 L 92.0 440.0 L 93.0 440.0 L 94.0 440.0 L 95.0 440.0 L 96.0 440.0 L 97.0 440.0 L 98.0 440.0 L 99.0 440.0 L 100.0 440.0 L 101.0 440.0 L 102.0 440.0 L 103.0 440.0 L 104.0 440.0 L 105.0 440.0 L 106.0 440.0 L 107.0 440.0 L 108.0 440.0 L 109.0 440.0 L 110.0 440.0 L 111.0 440.0 L 112.0 440.0 L 113.0 440.0 L 114.0 440.0 L 115.0 440.0 L 116.0 440.0 L 117.0 440.0 L 118.0 440.0 L 119.0 440.0 L 120.0 440.0 L 121.0 440.0 L 122.0 440.0 L 123.0 440.0 L 124.0 440.0 L 125.0 440.0 L 126.0 440.0 L 127.0 440.0 L 128.0 440.0 L 129.0 440.0 L 130.0 440.0 L 131.0 440.0 L 132.0 440.0 L 133.0 440.0 L 134.0 440.0 L 135.0 440.0 L 136.0 440.0 L 137.0 440.0 L 138.0 440.0 L 139.0 440.0 L 140.0 440.0 L 141.0 440.0 L 142.0 440.0 L 143.0 440.0 L 144.0 440.0 L 145.0 440.0 L 146.0 440.0 L 147.0 440.0 L 148.0 440.0 L 149.0 440.0 L 150.0 440.0 L 151.0 440.0 L 152.0 440.0 L 153.0 440.0 L 154.0 440.0 L 155.0 440.0 L 156.0 440.0 L 157.0 440.0 L 158.0 440.0 L 159.0 440.0 L 160.0 440.0 L 161.0 440.0 L 162.0 440.0 L 162.0 439.0 L 162.0 438.0 L 161.0 438.0 L 160.0 438.0 L 159.0 438.0 L 158.0 438.0 L 157.0 438.0 L 156.0 437.0 L 155.0 437.0 L 154.0 437.0 L 153.0 437.0 L 152.0 436.0 L 151.0 436.0 L 150.0 436.0 L 149.0 435.0 L 148.0 435.0 L 147.0 435.0 L 146.0 434.0 L 145.0 434.0 L 144.0 433.0 L 143.0 433.0 L 142.0 433.0 L 141.0 432.0 L 140.0 432.0 L 139.0 431.0 L 138.0 430.0 L 137.0 430.0 L 136.0 429.0 L 135.0 428.0 L 134.0 427.0 L 133.0 426.0 L 132.0 426.0 L 131.0 425.0 L 130.0 424.0 L 129.0 423.0 L 129.0 422.0 L 128.0 421.0 L 127.0 420.0 L 126.0 419.0 L 126.0 418.0 L 125.0 417.0 L 125.0 416.0 L 124.0 415.0 L 124.0 414.0 L 123.0 413.0 L 123.0 412.0 L 122.0 411.0 L 122.0 410.0 L 122.0 409.0 L 122.0 408.0 L 121.0 407.0 L 121.0 406.0 L 121.0 405.0 L 121.0 404.0 L 121.0 403.0 L 121.0 402.0 L 120.0 401.0 L 120.0 400.0 L 120.0 399.0 L 120.0 398.0 L 120.0 397.0 L 120.0 396.0 L 120.0 395.0 L 120.0 394.0 L 121.0 393.0 L 121.0 392.0 L 121.0 391.0 L 121.0 390.0 L 121.0 389.0 L 121.0 388.0 L 122.0 387.0 L 122.0 386.0 L 122.0 385.0 L 122.0 384.0 L 123.0 383.0 L 123.0 382.0 L 123.0 381.0 L 124.0 380.0 L 124.0 379.0 L 124.0 378.0 L 125.0 377.0 L 125.0 376.0 L 126.0 375.0 L 126.0 374.0 L 126.0 373.0 L 126.0 372.0 L 126.0 371.0 L 125.0 371.0 L 124.0 371.0 L 123.0 371.0 L 122.0 371.0 L 121.0 371.0 L 120.0 371.0 L 119.0 371.0 L 118.0 371.0 Z"/><path d="M 309.0 318.0 L 309.0 319.0 L 309.0 320.0 L 309.0 321.0 L 310.0 322.0 L 310.0 323.0 L 311.0 324.0 L 311.0 325.0 L 311.0 326.0 L 312.0 327.0 L 312.0 328.0 L 312.0 329.0 L 313.0 330.0 L 313.0 331.0 L 314.0 332.0 L 314.0 333.0 L 314.0 334.0 L 315.0 335.0 L 315.0 336.0 L 316.0 337.0 L 316.0 338.0 L 317.0 339.0 L 317.0 340.0 L 317.0 341.0 L 318.0 342.0 L 318.0 343.0 L 318.0 344.0 L 319.0 345.0 L 319.0 346.0 L 320.0 347.0 L 320.0 348.0 L 320.0 349.0 L 321.0 350.0 L 321.0 351.0 L 322.0 352.0 L 322.0 353.0 L 322.0 354.0 L 323.0 355.0 L 323.0 356.0 L 323.0 357.0 L 324.0 358.0 L 324.0 359.0 L 324.0 360.0 L 325.0 361.0 L 325.0 362.0 L 325.0 363.0 L 326.0 364.0 L 326.0 365.0 L 327.0 366.0 L 327.0 367.0 L 328.0 368.0 L 328.0 369.0 L 328.0 370.0 L 329.0 371.0 L 329.0 372.0 L 329.0 373.0 L 330.0 374.0 L 330.0 375.0 L 331.0 376.0 L 331.0 377.0 L 331.0 378.0 L 332.0 379.0 L 332.0 380.0 L 333.0 381.0 L 333.0 382.0 L 333.0 383.0 L 334.0 384.0 L 334.0 385.0 L 334.0 386.0 L 335.0 387.0 L 335.0 388.0 L 335.0 389.0 L 336.0 390.0 L 336.0 391.0 L 337.0 392.0 L 337.0 393.0 L 338.0 394.0 L 338.0 395.0 L 338.0 396.0 L 339.0 397.0 L 339.0 398.0 L 339.0 399.0 L 340.0 400.0 L 340.0 401.0 L 341.0 402.0 L 341.0 403.0 L 341.0 404.0 L 342.0 405.0 L 342.0 406.0 L 343.0 407.0 L 343.0 408.0 L 343.0 409.0 L 344.0 410.0 L 344.0 411.0 L 344.0 412.0 L 344.0 413.0 L 344.0 414.0 L 345.0 415.0 L 345.0 416.0 L 345.0 417.0 L 345.0 418.0 L 345.0 419.0 L 345.0 420.0 L 345.0 421.0 L 344.0 422.0 L 344.0 423.0 L 344.0 424.0 L 344.0 425.0 L 343.0 426.0 L 343.0 427.0 L 343.0 428.0 L 342.0 429.0 L 341.0 430.0 L 340.0 431.0 L 339.0 432.0 L 338.0 433.0 L 337.0 434.0 L 336.0 435.0 L 335.0 435.0 L 334.0 436.0 L 333.0 436.0 L 332.0 436.0 L 331.0 437.0 L 330.0 437.0 L 329.0 437.0 L 328.0 438.0 L 327.0 438.0 L 326.0 438.0 L 325.0 438.0 L 324.0 438.0 L 324.0 439.0 L 324.0 440.0 L 325.0 440.0 L 326.0 440.0 L 327.0 440.0 L 328.0 440.0 L 329.0 440.0 L 330.0 440.0 L 331.0 440.0 L 332.0 440.0 L 333.0 440.0 L 334.0 440.0 L 335.0 440.0 L 336.0 440.0 L 337.0 440.0 L 338.0 440.0 L 339.0 440.0 L 340.0 440.0 L 341.0 440.0 L 342.0 440.0 L 343.0 440.0 L 344.0 440.0 L 345.0 440.0 L 346.0 440.0 L 347.0 440.0 L 348.0 440.0 L 349.0 440.0 L 350.0 440.0 L 351.0 440.0 L 352.0 440.0 L 353.0 440.0 L 354.0 440.0 L 355.0 440.0 L 356.0 440.0 L 357.0 440.0 L 358.0 440.0 L 359.0 440.0 L 360.0 440.0 L 361.0 440.0 L 362.0 440.0 L 363.0 440.0 L 364.0 440.0 L 365.0 440.0 L 366.0 440.0 L 367.0 440.0 L 368.0 440.0 L 369.0 440.0 L 370.0 440.0 L 371.0 440.0 L 372.0 440.0 L 373.0 440.0 L 374.0 440.0 L 375.0 440.0 L 376.0 440.0 L 377.0 440.0 L 378.0 440.0 L 379.0 440.0 L 380.0 440.0 L 381.0 440.0 L 382.0 440.0 L 383.0 440.0 L 384.0 440.0 L 385.0 440.0 L 386.0 440.0 L 387.0 440.0 L 388.0 440.0 L 389.0 440.0 L 390.0 440.0 L 391.0 440.0 L 392.0 440.0 L 393.0 440.0 L 394.0 440.0 L 395.0 440.0 L 396.0 440.0 L 397.0 440.0 L 398.0 440.0 L 399.0 440.0 L 400.0 440.0 L 401.0 440.0 L 402.0 440.0 L 403.0 440.0 L 404.0 440.0 L 405.0 440.0 L 406.0 440.0 L 407.0 440.0 L 408.0 440.0 L 409.0 440.0 L 410.0 440.0 L 411.0 440.0 L 412.0 440.0 L 413.0 440.0 L 414.0 440.0 L 415.0 440.0 L 416.0 440.0 L 417.0 440.0 L 418.0 440.0 L 419.0 440.0 L 420.0 440.0 L 421.0 440.0 L 422.0 440.0 L 423.0 440.0 L 424.0 440.0 L 425.0 440.0 L 426.0 440.0 L 427.0 440.0 L 428.0 440.0 L 429.0 440.0 L 430.0 440.0 L 431.0 440.0 L 432.0 440.0 L 433.0 440.0 L 434.0 440.0 L 435.0 440.0 L 436.0 440.0 L 437.0 440.0 L 438.0 440.0 L 439.0 440.0 L 440.0 440.0 L 441.0 440.0 L 442.0 440.0 L 443.0 440.0 L 443.0 439.0 L 443.0 438.0 L 442.0 438.0 L 441.0 438.0 L 440.0 438.0 L 439.0 438.0 L 438.0 437.0 L 437.0 437.0 L 436.0 437.0 L 435.0 437.0 L 434.0 436.0 L 433.0 436.0 L 432.0 436.0 L 431.0 436.0 L 430.0 435.0 L 429.0 435.0 L 428.0 434.0 L 427.0 434.0 L 426.0 434.0 L 425.0 434.0 L 424.0 433.0 L 423.0 433.0 L 422.0 432.0 L 421.0 432.0 L 420.0 431.0 L 419.0 431.0 L 418.0 430.0 L 417.0 430.0 L 416.0 429.0 L 415.0 428.0 L 414.0 428.0 L 413.0 427.0 L 412.0 426.0 L 411.0 425.0 L 410.0 424.0 L 409.0 423.0 L 408.0 422.0 L 407.0 421.0 L 406.0 420.0 L 405.0 419.0 L 404.0 418.0 L 404.0 417.0 L 403.0 416.0 L 402.0 415.0 L 402.0 414.0 L 401.0 413.0 L 401.0 412.0 L 400.0 411.0 L 399.0 410.0 L 399.0 409.0 L 398.0 408.0 L 398.0 407.0 L 397.0 406.0 L 397.0 405.0 L 397.0 404.0 L 396.0 403.0 L 396.0 402.0 L 396.0 401.0 L 395.0 400.0 L 395.0 399.0 L 394.0 398.0 L 394.0 397.0 L 394.0 396.0 L 394.0 395.0 L 393.0 394.0 L 392.0 393.0 L 391.0 392.0 L 390.0 391.0 L 389.0 390.0 L 388.0 389.0 L 387.0 389.0 L 386.0 388.0 L 385.0 387.0 L 384.0 386.0 L 383.0 385.0 L 382.0 384.0 L 381.0 383.0 L 380.0 382.0 L 379.0 381.0 L 378.0 380.0 L 377.0 379.0 L 376.0 379.0 L 375.0 378.0 L 374.0 377.0 L 373.0 376.0 L 372.0 375.0 L 371.0 374.0 L 370.0 373.0 L 369.0 372.0 L 368.0 371.0 L 367.0 370.0 L 366.0 369.0 L 365.0 368.0 L 364.0 367.0 L 363.0 366.0 L 362.0 365.0 L 361.0 364.0 L 360.0 363.0 L 359.0 362.0 L 358.0 361.0 L 357.0 360.0 L 356.0 359.0 L 355.0 358.0 L 354.0 358.0 L 353.0 357.0 L 352.0 356.0 L 351.0 355.0 L 350.0 354.0 L 349.0 353.0 L 348.0 352.0 L 347.0 351.0 L 346.0 350.0 L 345.0 349.0 L 344.0 348.0 L 343.0 347.0 L 342.0 346.0 L 341.0 345.0 L 340.0 344.0 L 339.0 343.0 L 338.0 342.0 L 337.0 341.0 L 336.0 340.0 L 335.0 339.0 L 334.0 339.0 L 333.0 338.0 L 332.0 337.0 L 331.0 336.0 L 330.0 335.0 L 329.0 334.0 L 328.0 333.0 L 327.0 332.0 L 326.0 331.0 L 325.0 330.0 L 324.0 329.0 L 323.0 328.0 L 322.0 328.0 L 321.0 327.0 L 320.0 326.0 L 319.0 325.0 L 318.0 324.0 L 317.0 323.0 L 316.0 323.0 L 315.0 322.0 L 314.0 321.0 L 313.0 320.0 L 312.0 319.0 L 311.0 318.0 L 310.0 318.0 Z"/><path d="M 255.0 40.0 L 255.0 41.0 L 254.0 42.0 L 254.0 43.0 L 254.0 44.0 L 253.0 45.0 L 253.0 46.0 L 253.0 47.0 L 252.0 48.0 L 252.0 49.0 L 251.0 50.0 L 251.0 51.0 L 251.0 52.0 L 250.0 53.0 L 250.0 54.0 L 250.0 55.0 L 249.0 56.0 L 249.0 57.0 L 248.0 58.0 L 248.0 59.0 L 248.0 60.0 L 247.0 61.0 L 247.0 62.0 L 247.0 63.0 L 246.0 64.0 L 246.0 65.0 L 245.0 66.0 L 245.0 67.0 L 245.0 68.0 L 244.0 69.0 L 244.0 70.0 L 244.0 71.0 L 243.0 72.0 L 243.0 73.0 L 243.0 74.0 L 242.0 75.0 L 242.0 76.0 L 241.0 77.0 L 241.0 78.0 L 241.0 79.0 L 240.0 80.0 L 240.0 81.0 L 240.0 82.0 L 239.0 83.0 L 239.0 84.0 L 238.0 85.0 L 238.0 86.0 L 238.0 87.0 L 237.0 88.0 L 237.0 89.0 L 236.0 90.0 L 236.0 91.0 L 236.0 92.0 L 235.0 93.0 L 235.0 94.0 L 235.0 95.0 L 234.0 96.0 L 234.0 97.0 L 233.0 98.0 L 233.0 99.0 L 233.0 100.0 L 232.0 101.0 L 232.0 102.0 L 231.0 103.0 L 231.0 104.0 L 231.0 105.0 L 230.0 106.0 L 230.0 107.0 L 230.0 108.0 L 229.0 109.0 L 229.0 110.0 L 229.0 111.0 L 228.0 112.0 L 228.0 113.0 L 227.0 114.0 L 227.0 115.0 L 227.0 116.0 L 226.0 117.0 L 226.0 118.0 L 226.0 119.0 L 225.0 120.0 L 225.0 121.0 L 225.0 122.0 L 224.0 123.0 L 224.0 124.0 L 223.0 125.0 L 223.0 126.0 L 223.0 127.0 L 222.0 128.0 L 222.0 129.0 L 222.0 130.0 L 221.0 131.0 L 221.0 132.0 L 220.0 133.0 L 220.0 134.0 L 220.0 135.0 L 219.0 136.0 L 219.0 137.0 L 219.0 138.0 L 218.0 139.0 L 218.0 140.0 L 218.0 141.0 L 217.0 142.0 L 217.0 143.0 L 216.0 144.0 L 216.0 145.0 L 216.0 146.0 L 215.0 147.0 L 215.0 148.0 L 214.0 149.0 L 214.0 150.0 L 214.0 151.0 L 213.0 152.0 L 213.0 153.0 L 213.0 154.0 L 212.0 155.0 L 212.0 156.0 L 211.0 157.0 L 211.0 158.0 L 211.0 159.0 L 210.0 160.0 L 210.0 161.0 L 210.0 162.0 L 209.0 163.0 L 209.0 164.0 L 209.0 165.0 L 208.0 166.0 L 208.0 167.0 L 207.0 168.0 L 207.0 169.0 L 207.0 170.0 L 207.0 171.0 L 206.0 172.0 L 206.0 173.0 L 205.0 174.0 L 205.0 175.0 L 204.0 176.0 L 204.0 177.0 L 204.0 178.0 L 203.0 179.0 L 203.0 180.0 L 202.0 181.0 L 202.0 182.0 L 202.0 183.0 L 202.0 184.0 L 201.0 185.0 L 201.0 186.0 L 200.0 187.0 L 200.0 188.0 L 200.0 189.0 L 199.0 190.0 L 199.0 191.0 L 199.0 192.0 L 198.0 193.0 L 198.0 194.0 L 197.0 195.0 L 197.0 196.0 L 197.0 197.0 L 196.0 198.0 L 196.0 199.0 L 196.0 200.0 L 195.0 201.0 L 195.0 202.0 L 194.0 203.0 L 194.0 204.0 L 194.0 205.0 L 193.0 206.0 L 193.0 207.0 L 193.0 208.0 L 192.0 209.0 L 192.0 210.0 L 191.0 211.0 L 191.0 212.0 L 191.0 213.0 L 190.0 214.0 L 190.0 215.0 L 190.0 216.0 L 189.0 217.0 L 189.0 218.0 L 189.0 219.0 L 188.0 220.0 L 188.0 221.0 L 188.0 222.0 L 187.0 223.0 L 187.0 224.0 L 186.0 225.0 L 186.0 226.0 L 186.0 227.0 L 185.0 228.0 L 185.0 229.0 L 185.0 230.0 L 184.0 231.0 L 184.0 232.0 L 183.0 233.0 L 183.0 234.0 L 182.0 235.0 L 182.0 236.0 L 182.0 237.0 L 181.0 238.0 L 181.0 239.0 L 181.0 240.0 L 181.0 241.0 L 180.0 242.0 L 180.0 243.0 L 179.0 244.0 L 179.0 245.0 L 179.0 246.0 L 178.0 247.0 L 178.0 248.0 L 177.0 249.0 L 177.0 250.0 L 176.0 251.0 L 176.0 252.0 L 176.0 253.0 L 177.0 253.0 L 178.0 253.0 L 179.0 253.0 L 180.0 253.0 L 181.0 253.0 L 182.0 253.0 L 183.0 253.0 L 184.0 253.0 L 185.0 253.0 L 185.0 252.0 L 186.0 251.0 L 186.0 250.0 L 187.0 249.0 L 187.0 248.0 L 187.0 247.0 L 188.0 246.0 L 188.0 245.0 L 188.0 244.0 L 189.0 243.0 L 189.0 242.0 L 190.0 241.0 L 190.0 240.0 L 190.0 239.0 L 191.0 238.0 L 191.0 237.0 L 191.0 236.0 L 192.0 235.0 L 192.0 234.0 L 192.0 233.0 L 193.0 232.0 L 193.0 231.0 L 194.0 230.0 L 194.0 229.0 L 194.0 228.0 L 195.0 227.0 L 195.0 226.0 L 195.0 225.0 L 196.0 224.0 L 196.0 223.0 L 196.0 222.0 L 197.0 221.0 L 197.0 220.0 L 198.0 219.0 L 198.0 218.0 L 198.0 217.0 L 199.0 216.0 L 199.0 215.0 L 199.0 214.0 L 200.0 213.0 L 200.0 212.0 L 200.0 211.0 L 201.0 210.0 L 201.0 209.0 L 201.0 208.0 L 202.0 207.0 L 202.0 206.0 L 203.0 205.0 L 203.0 204.0 L 203.0 203.0 L 204.0 202.0 L 204.0 201.0 L 204.0 200.0 L 205.0 199.0 L 205.0 198.0 L 206.0 197.0 L 206.0 196.0 L 206.0 195.0 L 207.0 194.0 L 207.0 193.0 L 207.0 192.0 L 208.0 191.0 L 208.0 190.0 L 209.0 189.0 L 209.0 188.0 L 209.0 187.0 L 210.0 186.0 L 210.0 185.0 L 210.0 184.0 L 211.0 183.0 L 211.0 182.0 L 212.0 181.0 L 212.0 180.0 L 212.0 179.0 L 213.0 178.0 L 213.0 177.0 L 213.0 176.0 L 214.0 175.0 L 214.0 174.0 L 214.0 173.0 L 215.0 172.0 L 215.0 171.0 L 215.0 170.0 L 216.0 169.0 L 216.0 168.0 L 216.0 167.0 L 217.0 166.0 L 217.0 165.0 L 218.0 164.0 L 218.0 163.0 L 218.0 162.0 L 219.0 161.0 L 219.0 160.0 L 219.0 159.0 L 220.0 158.0 L 220.0 157.0 L 221.0 156.0 L 221.0 155.0 L 221.0 154.0 L 222.0 153.0 L 222.0 152.0 L 222.0 151.0 L 223.0 150.0 L 223.0 149.0 L 224.0 148.0 L 224.0 147.0 L 224.0 146.0 L 225.0 145.0 L 225.0 144.0 L 225.0 143.0 L 225.0 142.0 L 226.0 141.0 L 226.0 140.0 L 227.0 139.0 L 227.0 138.0 L 228.0 137.0 L 228.0 136.0 L 228.0 135.0 L 229.0 134.0 L 229.0 133.0 L 229.0 132.0 L 230.0 131.0 L 230.0 130.0 L 230.0 129.0 L 231.0 128.0 L 232.0 127.0 L 233.0 127.0 L 234.0 127.0 L 235.0 127.0 L 236.0 127.0 L 237.0 128.0 L 237.0 129.0 L 238.0 130.0 L 238.0 131.0 L 238.0 132.0 L 239.0 133.0 L 239.0 134.0 L 240.0 135.0 L 240.0 136.0 L 240.0 137.0 L 241.0 138.0 L 241.0 139.0 L 241.0 140.0 L 242.0 141.0 L 242.0 142.0 L 243.0 143.0 L 243.0 144.0 L 243.0 145.0 L 244.0 146.0 L 244.0 147.0 L 244.0 148.0 L 245.0 149.0 L 245.0 150.0 L 245.0 151.0 L 246.0 152.0 L 246.0 153.0 L 247.0 154.0 L 247.0 155.0 L 247.0 156.0 L 248.0 157.0 L 248.0 158.0 L 248.0 159.0 L 249.0 160.0 L 249.0 161.0 L 250.0 162.0 L 250.0 163.0 L 251.0 164.0 L 251.0 165.0 L 251.0 166.0 L 252.0 167.0 L 252.0 168.0 L 253.0 169.0 L 253.0 170.0 L 253.0 171.0 L 254.0 172.0 L 254.0 173.0 L 255.0 174.0 L 255.0 175.0 L 255.0 176.0 L 255.0 177.0 L 256.0 178.0 L 256.0 179.0 L 257.0 180.0 L 257.0 181.0 L 257.0 182.0 L 258.0 183.0 L 258.0 184.0 L 259.0 185.0 L 259.0 186.0 L 259.0 187.0 L 260.0 188.0 L 260.0 189.0 L 260.0 190.0 L 261.0 191.0 L 261.0 192.0 L 262.0 193.0 L 262.0 194.0 L 262.0 195.0 L 263.0 196.0 L 263.0 197.0 L 263.0 198.0 L 264.0 199.0 L 264.0 200.0 L 265.0 201.0 L 265.0 202.0 L 266.0 203.0 L 266.0 204.0 L 266.0 205.0 L 267.0 206.0 L 267.0 207.0 L 267.0 208.0 L 268.0 209.0 L 268.0 210.0 L 268.0 211.0 L 269.0 212.0 L 269.0 213.0 L 270.0 214.0 L 270.0 215.0 L 270.0 216.0 L 271.0 217.0 L 271.0 218.0 L 271.0 219.0 L 272.0 220.0 L 272.0 221.0 L 273.0 222.0 L 273.0 223.0 L 274.0 224.0 L 274.0 225.0 L 274.0 226.0 L 275.0 227.0 L 275.0 228.0 L 275.0 229.0 L 276.0 230.0 L 276.0 231.0 L 276.0 232.0 L 277.0 233.0 L 277.0 234.0 L 277.0 235.0 L 278.0 236.0 L 278.0 237.0 L 279.0 238.0 L 279.0 239.0 L 279.0 240.0 L 280.0 241.0 L 280.0 242.0 L 281.0 243.0 L 281.0 244.0 L 281.0 245.0 L 282.0 246.0 L 282.0 247.0 L 283.0 248.0 L 283.0 249.0 L 283.0 250.0 L 284.0 251.0 L 284.0 252.0 L 285.0 253.0 L 285.0 254.0 L 285.0 255.0 L 286.0 256.0 L 286.0 257.0 L 286.0 258.0 L 287.0 259.0 L 287.0 260.0 L 288.0 261.0 L 288.0 262.0 L 288.0 263.0 L 289.0 264.0 L 289.0 265.0 L 289.0 266.0 L 290.0 267.0 L 290.0 268.0 L 291.0 269.0 L 291.0 270.0 L 291.0 271.0 L 292.0 272.0 L 293.0 273.0 L 294.0 273.0 L 295.0 274.0 L 296.0 274.0 L 297.0 275.0 L 298.0 275.0 L 299.0 276.0 L 300.0 276.0 L 301.0 277.0 L 302.0 277.0 L 303.0 278.0 L 304.0 278.0 L 305.0 279.0 L 306.0 279.0 L 307.0 280.0 L 308.0 280.0 L 309.0 281.0 L 310.0 281.0 L 311.0 282.0 L 312.0 282.0 L 313.0 283.0 L 314.0 283.0 L 315.0 284.0 L 316.0 284.0 L 317.0 285.0 L 318.0 286.0 L 319.0 286.0 L 320.0 287.0 L 321.0 287.0 L 322.0 288.0 L 323.0 288.0 L 324.0 289.0 L 325.0 290.0 L 326.0 290.0 L 327.0 291.0 L 328.0 292.0 L 329.0 292.0 L 330.0 293.0 L 331.0 293.0 L 332.0 294.0 L 333.0 295.0 L 334.0 295.0 L 335.0 296.0 L 336.0 297.0 L 337.0 297.0 L 338.0 298.0 L 339.0 299.0 L 340.0 300.0 L 341.0 300.0 L 342.0 301.0 L 343.0 302.0 L 344.0 302.0 L 345.0 303.0 L 346.0 304.0 L 347.0 304.0 L 348.0 305.0 L 349.0 306.0 L 350.0 307.0 L 351.0 307.0 L 352.0 308.0 L 353.0 309.0 L 354.0 310.0 L 355.0 311.0 L 356.0 311.0 L 357.0 312.0 L 358.0 313.0 L 359.0 314.0 L 360.0 314.0 L 361.0 315.0 L 362.0 316.0 L 363.0 317.0 L 364.0 317.0 L 365.0 317.0 L 365.0 316.0 L 365.0 315.0 L 364.0 314.0 L 364.0 313.0 L 363.0 312.0 L 363.0 311.0 L 363.0 310.0 L 362.0 309.0 L 362.0 308.0 L 362.0 307.0 L 361.0 306.0 L 361.0 305.0 L 360.0 304.0 L 360.0 303.0 L 360.0 302.0 L 359.0 301.0 L 359.0 300.0 L 358.0 299.0 L 358.0 298.0 L 358.0 297.0 L 358.0 296.0 L 357.0 295.0 L 357.0 294.0 L 356.0 293.0 L 356.0 292.0 L 356.0 291.0 L 355.0 290.0 L 355.0 289.0 L 354.0 288.0 L 354.0 287.0 L 353.0 286.0 L 353.0 285.0 L 353.0 284.0 L 352.0 283.0 L 352.0 282.0 L 351.0 281.0 L 351.0 280.0 L 351.0 279.0 L 350.0 278.0 L 350.0 277.0 L 350.0 276.0 L 349.0 275.0 L 349.0 274.0 L 348.0 273.0 L 348.0 272.0 L 347.0 271.0 L 347.0 270.0 L 347.0 269.0 L 346.0 268.0 L 346.0 267.0 L 346.0 266.0 L 345.0 265.0 L 345.0 264.0 L 344.0 263.0 L 344.0 262.0 L 344.0 261.0 L 343.0 260.0 L 343.0 259.0 L 343.0 258.0 L 342.0 257.0 L 342.0 256.0 L 342.0 255.0 L 341.0 254.0 L 341.0 253.0 L 340.0 252.0 L 340.0 251.0 L 340.0 250.0 L 339.0 249.0 L 339.0 248.0 L 338.0 247.0 L 338.0 246.0 L 337.0 245.0 L 337.0 244.0 L 337.0 243.0 L 336.0 242.0 L 336.0 241.0 L 335.0 240.0 L 335.0 239.0 L 334.0 238.0 L 334.0 237.0 L 334.0 236.0 L 333.0 235.0 L 333.0 234.0 L 333.0 233.0 L 332.0 232.0 L 332.0 231.0 L 331.0 230.0 L 331.0 229.0 L 331.0 228.0 L 330.0 227.0 L 330.0 226.0 L 329.0 225.0 L 329.0 224.0 L 329.0 223.0 L 328.0 222.0 L 328.0 221.0 L 328.0 220.0 L 327.0 219.0 L 327.0 218.0 L 327.0 217.0 L 326.0 216.0 L 326.0 215.0 L 325.0 214.0 L 325.0 213.0 L 325.0 212.0 L 324.0 211.0 L 324.0 210.0 L 323.0 209.0 L 323.0 208.0 L 323.0 207.0 L 322.0 206.0 L 322.0 205.0 L 321.0 204.0 L 321.0 203.0 L 321.0 202.0 L 320.0 201.0 L 320.0 200.0 L 319.0 199.0 L 319.0 198.0 L 319.0 197.0 L 318.0 196.0 L 318.0 195.0 L 318.0 194.0 L 317.0 193.0 L 317.0 192.0 L 316.0 191.0 L 316.0 190.0 L 315.0 189.0 L 315.0 188.0 L 315.0 187.0 L 314.0 186.0 L 314.0 185.0 L 314.0 184.0 L 313.0 183.0 L 313.0 182.0 L 312.0 181.0 L 312.0 180.0 L 312.0 179.0 L 311.0 178.0 L 311.0 177.0 L 311.0 176.0 L 310.0 175.0 L 310.0 174.0 L 310.0 173.0 L 309.0 172.0 L 309.0 171.0 L 308.0 170.0 L 308.0 169.0 L 308.0 168.0 L 307.0 167.0 L 307.0 166.0 L 306.0 165.0 L 306.0 164.0 L 306.0 163.0 L 305.0 162.0 L 305.0 161.0 L 304.0 160.0 L 304.0 159.0 L 304.0 158.0 L 303.0 157.0 L 303.0 156.0 L 302.0 155.0 L 302.0 154.0 L 302.0 153.0 L 301.0 152.0 L 301.0 151.0 L 301.0 150.0 L 300.0 149.0 L 300.0 148.0 L 299.0 147.0 L 299.0 146.0 L 299.0 145.0 L 298.0 144.0 L 298.0 143.0 L 297.0 142.0 L 297.0 141.0 L 297.0 140.0 L 296.0 139.0 L 296.0 138.0 L 296.0 137.0 L 295.0 136.0 L 295.0 135.0 L 294.0 134.0 L 294.0 133.0 L 294.0 132.0 L 293.0 131.0 L 293.0 130.0 L 293.0 129.0 L 292.0 128.0 L 292.0 127.0 L 291.0 126.0 L 291.0 125.0 L 290.0 124.0 L 290.0 123.0 L 290.0 122.0 L 289.0 121.0 L 289.0 120.0 L 288.0 119.0 L 288.0 118.0 L 288.0 117.0 L 288.0 116.0 L 287.0 115.0 L 287.0 114.0 L 286.0 113.0 L 286.0 112.0 L 285.0 111.0 L 285.0 110.0 L 285.0 109.0 L 284.0 108.0 L 284.0 107.0 L 283.0 106.0 L 283.0 105.0 L 283.0 104.0 L 282.0 103.0 L 282.0 102.0 L 282.0 101.0 L 281.0 100.0 L 281.0 99.0 L 280.0 98.0 L 280.0 97.0 L 280.0 96.0 L 279.0 95.0 L 279.0 94.0 L 279.0 93.0 L 278.0 92.0 L 278.0 91.0 L 278.0 90.0 L 277.0 89.0 L 277.0 88.0 L 276.0 87.0 L 276.0 86.0 L 275.0 85.0 L 275.0 84.0 L 275.0 83.0 L 274.0 82.0 L 274.0 81.0 L 273.0 80.0 L 273.0 79.0 L 272.0 78.0 L 272.0 77.0 L 272.0 76.0 L 271.0 75.0 L 271.0 74.0 L 271.0 73.0 L 270.0 72.0 L 270.0 71.0 L 270.0 70.0 L 269.0 69.0 L 269.0 68.0 L 268.0 67.0 L 268.0 66.0 L 268.0 65.0 L 267.0 64.0 L 267.0 63.0 L 267.0 62.0 L 266.0 61.0 L 266.0 60.0 L 265.0 59.0 L 265.0 58.0 L 264.0 57.0 L 264.0 56.0 L 264.0 55.0 L 263.0 54.0 L 263.0 53.0 L 263.0 52.0 L 262.0 51.0 L 262.0 50.0 L 261.0 49.0 L 261.0 48.0 L 261.0 47.0 L 260.0 46.0 L 260.0 45.0 L 260.0 44.0 L 259.0 43.0 L 259.0 42.0 L 258.0 41.0 L 258.0 40.0 L 257.0 40.0 L 256.0 40.0 Z"/>
  </g>
  <g fill="#e4adca" fill-rule="evenodd">
    <path d="M 204.0 261.0 L 203.0 262.0 L 202.0 262.0 L 201.0 262.0 L 200.0 262.0 L 199.0 262.0 L 198.0 262.0 L 197.0 262.0 L 196.0 262.0 L 195.0 262.0 L 194.0 262.0 L 193.0 262.0 L 192.0 263.0 L 191.0 263.0 L 190.0 263.0 L 189.0 263.0 L 188.0 263.0 L 187.0 263.0 L 186.0 264.0 L 185.0 264.0 L 184.0 264.0 L 183.0 264.0 L 182.0 265.0 L 181.0 265.0 L 180.0 265.0 L 179.0 265.0 L 178.0 266.0 L 177.0 266.0 L 176.0 266.0 L 175.0 266.0 L 174.0 267.0 L 173.0 267.0 L 172.0 268.0 L 171.0 268.0 L 170.0 268.0 L 169.0 268.0 L 168.0 269.0 L 168.0 270.0 L 168.0 271.0 L 168.0 272.0 L 168.0 273.0 L 169.0 273.0 L 170.0 273.0 L 171.0 273.0 L 172.0 273.0 L 173.0 273.0 L 174.0 273.0 L 175.0 272.0 L 176.0 272.0 L 177.0 272.0 L 178.0 272.0 L 179.0 272.0 L 180.0 272.0 L 181.0 272.0 L 182.0 272.0 L 183.0 272.0 L 184.0 272.0 L 185.0 272.0 L 186.0 272.0 L 187.0 272.0 L 188.0 272.0 L 189.0 272.0 L 190.0 272.0 L 191.0 272.0 L 192.0 272.0 L 193.0 272.0 L 194.0 272.0 L 195.0 272.0 L 196.0 272.0 L 197.0 272.0 L 198.0 272.0 L 199.0 272.0 L 200.0 272.0 L 201.0 272.0 L 202.0 272.0 L 203.0 272.0 L 204.0 272.0 L 205.0 272.0 L 206.0 272.0 L 207.0 272.0 L 208.0 272.0 L 209.0 272.0 L 210.0 272.0 L 211.0 272.0 L 212.0 273.0 L 213.0 273.0 L 214.0 273.0 L 215.0 273.0 L 216.0 273.0 L 217.0 273.0 L 218.0 273.0 L 219.0 273.0 L 220.0 274.0 L 221.0 274.0 L 222.0 274.0 L 223.0 274.0 L 224.0 274.0 L 225.0 274.0 L 226.0 275.0 L 227.0 275.0 L 228.0 275.0 L 229.0 275.0 L 230.0 275.0 L 231.0 276.0 L 232.0 276.0 L 233.0 276.0 L 234.0 276.0 L 235.0 277.0 L 236.0 277.0 L 237.0 277.0 L 238.0 277.0 L 239.0 278.0 L 240.0 278.0 L 241.0 278.0 L 242.0 278.0 L 243.0 279.0 L 244.0 279.0 L 245.0 279.0 L 246.0 280.0 L 247.0 280.0 L 248.0 280.0 L 249.0 281.0 L 250.0 281.0 L 251.0 282.0 L 252.0 282.0 L 253.0 282.0 L 254.0 283.0 L 255.0 283.0 L 256.0 284.0 L 257.0 284.0 L 258.0 285.0 L 259.0 285.0 L 260.0 285.0 L 261.0 286.0 L 262.0 286.0 L 263.0 287.0 L 264.0 287.0 L 265.0 288.0 L 266.0 288.0 L 267.0 289.0 L 268.0 289.0 L 269.0 290.0 L 270.0 290.0 L 271.0 291.0 L 272.0 291.0 L 273.0 292.0 L 274.0 293.0 L 275.0 293.0 L 276.0 294.0 L 277.0 294.0 L 278.0 295.0 L 279.0 295.0 L 280.0 296.0 L 281.0 297.0 L 282.0 297.0 L 283.0 298.0 L 284.0 299.0 L 285.0 299.0 L 286.0 300.0 L 287.0 301.0 L 288.0 301.0 L 289.0 302.0 L 290.0 303.0 L 291.0 303.0 L 292.0 304.0 L 293.0 305.0 L 294.0 306.0 L 295.0 306.0 L 296.0 307.0 L 297.0 308.0 L 298.0 309.0 L 299.0 309.0 L 300.0 310.0 L 301.0 311.0 L 302.0 311.0 L 303.0 312.0 L 304.0 313.0 L 305.0 314.0 L 306.0 314.0 L 307.0 315.0 L 307.0 316.0 L 307.0 317.0 L 308.0 317.0 L 309.0 317.0 L 310.0 317.0 L 311.0 317.0 L 312.0 318.0 L 313.0 319.0 L 314.0 320.0 L 315.0 321.0 L 316.0 322.0 L 317.0 322.0 L 318.0 323.0 L 319.0 324.0 L 320.0 325.0 L 321.0 326.0 L 322.0 327.0 L 323.0 327.0 L 324.0 328.0 L 325.0 329.0 L 326.0 330.0 L 327.0 331.0 L 328.0 332.0 L 329.0 333.0 L 330.0 334.0 L 331.0 335.0 L 332.0 336.0 L 333.0 337.0 L 334.0 338.0 L 335.0 338.0 L 336.0 339.0 L 337.0 340.0 L 338.0 341.0 L 339.0 342.0 L 340.0 343.0 L 341.0 344.0 L 342.0 345.0 L 343.0 346.0 L 344.0 347.0 L 345.0 348.0 L 346.0 349.0 L 347.0 350.0 L 348.0 351.0 L 349.0 352.0 L 350.0 353.0 L 351.0 354.0 L 352.0 355.0 L 353.0 356.0 L 354.0 357.0 L 355.0 357.0 L 356.0 358.0 L 357.0 359.0 L 358.0 360.0 L 359.0 361.0 L 360.0 362.0 L 361.0 363.0 L 362.0 364.0 L 363.0 365.0 L 364.0 366.0 L 365.0 367.0 L 366.0 368.0 L 367.0 369.0 L 368.0 370.0 L 369.0 371.0 L 370.0 372.0 L 371.0 373.0 L 372.0 374.0 L 373.0 375.0 L 374.0 376.0 L 375.0 377.0 L 376.0 378.0 L 377.0 378.0 L 378.0 379.0 L 379.0 380.0 L 380.0 381.0 L 381.0 382.0 L 382.0 383.0 L 383.0 384.0 L 384.0 385.0 L 385.0 386.0 L 386.0 387.0 L 387.0 388.0 L 388.0 388.0 L 389.0 389.0 L 390.0 390.0 L 391.0 391.0 L 392.0 392.0 L 393.0 393.0 L 394.0 394.0 L 395.0 395.0 L 396.0 396.0 L 397.0 397.0 L 398.0 398.0 L 399.0 399.0 L 400.0 400.0 L 401.0 401.0 L 402.0 402.0 L 403.0 402.0 L 404.0 403.0 L 405.0 404.0 L 406.0 405.0 L 407.0 405.0 L 408.0 406.0 L 409.0 407.0 L 410.0 407.0 L 411.0 408.0 L 412.0 408.0 L 413.0 409.0 L 414.0 410.0 L 415.0 410.0 L 416.0 411.0 L 417.0 412.0 L 418.0 412.0 L 419.0 413.0 L 420.0 414.0 L 421.0 415.0 L 422.0 415.0 L 423.0 416.0 L 424.0 416.0 L 425.0 417.0 L 426.0 418.0 L 427.0 418.0 L 428.0 419.0 L 429.0 419.0 L 430.0 420.0 L 431.0 420.0 L 432.0 421.0 L 433.0 422.0 L 434.0 422.0 L 435.0 423.0 L 436.0 423.0 L 437.0 424.0 L 438.0 424.0 L 439.0 425.0 L 440.0 425.0 L 441.0 426.0 L 442.0 426.0 L 443.0 427.0 L 444.0 427.0 L 445.0 428.0 L 446.0 428.0 L 447.0 429.0 L 448.0 429.0 L 449.0 430.0 L 450.0 430.0 L 451.0 431.0 L 452.0 431.0 L 453.0 431.0 L 454.0 432.0 L 455.0 432.0 L 456.0 433.0 L 457.0 433.0 L 458.0 433.0 L 459.0 434.0 L 460.0 434.0 L 461.0 434.0 L 462.0 435.0 L 463.0 435.0 L 464.0 435.0 L 465.0 436.0 L 466.0 436.0 L 467.0 437.0 L 468.0 437.0 L 469.0 437.0 L 470.0 437.0 L 471.0 438.0 L 472.0 438.0 L 473.0 438.0 L 474.0 439.0 L 475.0 439.0 L 476.0 439.0 L 477.0 439.0 L 478.0 440.0 L 479.0 440.0 L 480.0 440.0 L 481.0 440.0 L 482.0 440.0 L 483.0 441.0 L 484.0 441.0 L 485.0 441.0 L 486.0 441.0 L 487.0 442.0 L 488.0 442.0 L 489.0 442.0 L 490.0 442.0 L 491.0 442.0 L 492.0 443.0 L 493.0 443.0 L 494.0 443.0 L 495.0 443.0 L 496.0 443.0 L 497.0 443.0 L 498.0 444.0 L 499.0 444.0 L 500.0 444.0 L 501.0 444.0 L 502.0 444.0 L 503.0 444.0 L 504.0 444.0 L 505.0 444.0 L 506.0 444.0 L 507.0 445.0 L 508.0 445.0 L 509.0 445.0 L 510.0 445.0 L 511.0 445.0 L 512.0 445.0 L 513.0 445.0 L 514.0 445.0 L 515.0 445.0 L 516.0 445.0 L 517.0 445.0 L 518.0 445.0 L 519.0 445.0 L 520.0 445.0 L 521.0 445.0 L 522.0 445.0 L 523.0 445.0 L 524.0 445.0 L 525.0 445.0 L 526.0 445.0 L 527.0 445.0 L 528.0 445.0 L 529.0 445.0 L 530.0 444.0 L 531.0 444.0 L 532.0 444.0 L 533.0 444.0 L 534.0 444.0 L 535.0 444.0 L 536.0 444.0 L 537.0 444.0 L 538.0 444.0 L 539.0 444.0 L 540.0 444.0 L 541.0 444.0 L 542.0 443.0 L 543.0 443.0 L 544.0 443.0 L 545.0 443.0 L 546.0 443.0 L 547.0 443.0 L 548.0 443.0 L 549.0 443.0 L 550.0 442.0 L 551.0 442.0 L 552.0 442.0 L 553.0 442.0 L 554.0 442.0 L 555.0 441.0 L 556.0 441.0 L 557.0 441.0 L 558.0 441.0 L 559.0 440.0 L 560.0 440.0 L 561.0 440.0 L 562.0 440.0 L 563.0 439.0 L 564.0 439.0 L 565.0 439.0 L 566.0 439.0 L 567.0 438.0 L 568.0 438.0 L 569.0 438.0 L 570.0 437.0 L 571.0 437.0 L 572.0 436.0 L 573.0 436.0 L 574.0 436.0 L 575.0 435.0 L 576.0 435.0 L 577.0 434.0 L 578.0 434.0 L 579.0 433.0 L 580.0 433.0 L 581.0 433.0 L 582.0 432.0 L 583.0 432.0 L 584.0 431.0 L 585.0 431.0 L 586.0 430.0 L 587.0 429.0 L 588.0 429.0 L 589.0 428.0 L 590.0 428.0 L 591.0 427.0 L 592.0 426.0 L 593.0 426.0 L 594.0 425.0 L 595.0 424.0 L 596.0 424.0 L 597.0 423.0 L 598.0 422.0 L 599.0 421.0 L 600.0 420.0 L 601.0 419.0 L 602.0 419.0 L 603.0 418.0 L 604.0 417.0 L 605.0 416.0 L 606.0 415.0 L 606.0 414.0 L 607.0 413.0 L 608.0 412.0 L 609.0 411.0 L 610.0 410.0 L 610.0 409.0 L 611.0 408.0 L 612.0 407.0 L 613.0 406.0 L 613.0 405.0 L 614.0 404.0 L 615.0 403.0 L 615.0 402.0 L 616.0 401.0 L 616.0 400.0 L 617.0 399.0 L 617.0 398.0 L 618.0 397.0 L 618.0 396.0 L 619.0 395.0 L 619.0 394.0 L 620.0 393.0 L 620.0 392.0 L 621.0 391.0 L 621.0 390.0 L 621.0 389.0 L 621.0 388.0 L 622.0 387.0 L 622.0 386.0 L 622.0 385.0 L 623.0 384.0 L 623.0 383.0 L 623.0 382.0 L 623.0 381.0 L 624.0 380.0 L 624.0 379.0 L 624.0 378.0 L 624.0 377.0 L 624.0 376.0 L 624.0 375.0 L 624.0 374.0 L 625.0 373.0 L 625.0 372.0 L 625.0 371.0 L 625.0 370.0 L 625.0 369.0 L 625.0 368.0 L 625.0 367.0 L 625.0 366.0 L 625.0 365.0 L 625.0 364.0 L 625.0 363.0 L 625.0 362.0 L 625.0 361.0 L 625.0 360.0 L 625.0 359.0 L 625.0 358.0 L 625.0 357.0 L 625.0 356.0 L 625.0 355.0 L 625.0 354.0 L 625.0 353.0 L 625.0 352.0 L 625.0 351.0 L 625.0 350.0 L 625.0 349.0 L 624.0 348.0 L 624.0 347.0 L 624.0 346.0 L 624.0 345.0 L 624.0 344.0 L 624.0 343.0 L 624.0 342.0 L 624.0 341.0 L 624.0 340.0 L 623.0 340.0 L 622.0 340.0 L 622.0 341.0 L 622.0 342.0 L 622.0 343.0 L 622.0 344.0 L 622.0 345.0 L 622.0 346.0 L 622.0 347.0 L 621.0 348.0 L 621.0 349.0 L 621.0 350.0 L 621.0 351.0 L 621.0 352.0 L 621.0 353.0 L 621.0 354.0 L 620.0 355.0 L 620.0 356.0 L 620.0 357.0 L 620.0 358.0 L 619.0 359.0 L 619.0 360.0 L 619.0 361.0 L 619.0 362.0 L 618.0 363.0 L 618.0 364.0 L 618.0 365.0 L 617.0 366.0 L 617.0 367.0 L 616.0 368.0 L 616.0 369.0 L 616.0 370.0 L 615.0 371.0 L 615.0 372.0 L 614.0 373.0 L 614.0 374.0 L 613.0 375.0 L 613.0 376.0 L 612.0 377.0 L 612.0 378.0 L 611.0 379.0 L 610.0 380.0 L 610.0 381.0 L 609.0 382.0 L 608.0 383.0 L 608.0 384.0 L 607.0 385.0 L 606.0 386.0 L 605.0 387.0 L 605.0 388.0 L 604.0 389.0 L 603.0 390.0 L 602.0 391.0 L 601.0 392.0 L 600.0 393.0 L 599.0 394.0 L 598.0 395.0 L 597.0 396.0 L 596.0 397.0 L 595.0 398.0 L 594.0 399.0 L 593.0 400.0 L 592.0 401.0 L 591.0 402.0 L 590.0 402.0 L 589.0 403.0 L 588.0 404.0 L 587.0 405.0 L 586.0 405.0 L 585.0 406.0 L 584.0 407.0 L 583.0 407.0 L 582.0 408.0 L 581.0 409.0 L 580.0 409.0 L 579.0 410.0 L 578.0 410.0 L 577.0 411.0 L 576.0 412.0 L 575.0 412.0 L 574.0 412.0 L 573.0 413.0 L 572.0 413.0 L 571.0 414.0 L 570.0 414.0 L 569.0 415.0 L 568.0 415.0 L 567.0 415.0 L 566.0 416.0 L 565.0 416.0 L 564.0 417.0 L 563.0 417.0 L 562.0 417.0 L 561.0 418.0 L 560.0 418.0 L 559.0 418.0 L 558.0 419.0 L 557.0 419.0 L 556.0 419.0 L 555.0 419.0 L 554.0 419.0 L 553.0 420.0 L 552.0 420.0 L 551.0 420.0 L 550.0 420.0 L 549.0 421.0 L 548.0 421.0 L 547.0 421.0 L 546.0 421.0 L 545.0 421.0 L 544.0 421.0 L 543.0 422.0 L 542.0 422.0 L 541.0 422.0 L 540.0 422.0 L 539.0 422.0 L 538.0 422.0 L 537.0 422.0 L 536.0 423.0 L 535.0 423.0 L 534.0 423.0 L 533.0 423.0 L 532.0 423.0 L 531.0 423.0 L 530.0 423.0 L 529.0 423.0 L 528.0 423.0 L 527.0 423.0 L 526.0 423.0 L 525.0 423.0 L 524.0 423.0 L 523.0 423.0 L 522.0 423.0 L 521.0 423.0 L 520.0 423.0 L 519.0 423.0 L 518.0 423.0 L 517.0 423.0 L 516.0 423.0 L 515.0 423.0 L 514.0 423.0 L 513.0 423.0 L 512.0 423.0 L 511.0 423.0 L 510.0 423.0 L 509.0 422.0 L 508.0 422.0 L 507.0 422.0 L 506.0 422.0 L 505.0 422.0 L 504.0 422.0 L 503.0 422.0 L 502.0 422.0 L 501.0 422.0 L 500.0 422.0 L 499.0 421.0 L 498.0 421.0 L 497.0 421.0 L 496.0 421.0 L 495.0 421.0 L 494.0 420.0 L 493.0 420.0 L 492.0 420.0 L 491.0 420.0 L 490.0 419.0 L 489.0 419.0 L 488.0 419.0 L 487.0 419.0 L 486.0 418.0 L 485.0 418.0 L 484.0 418.0 L 483.0 418.0 L 482.0 417.0 L 481.0 417.0 L 480.0 417.0 L 479.0 417.0 L 478.0 416.0 L 477.0 416.0 L 476.0 415.0 L 475.0 415.0 L 474.0 415.0 L 473.0 414.0 L 472.0 414.0 L 471.0 414.0 L 470.0 413.0 L 469.0 413.0 L 468.0 413.0 L 467.0 412.0 L 466.0 412.0 L 465.0 411.0 L 464.0 411.0 L 463.0 410.0 L 462.0 410.0 L 461.0 409.0 L 460.0 409.0 L 459.0 408.0 L 458.0 408.0 L 457.0 407.0 L 456.0 407.0 L 455.0 406.0 L 454.0 405.0 L 453.0 405.0 L 452.0 404.0 L 451.0 404.0 L 450.0 403.0 L 449.0 402.0 L 448.0 402.0 L 447.0 401.0 L 446.0 400.0 L 445.0 400.0 L 444.0 399.0 L 443.0 398.0 L 442.0 398.0 L 441.0 397.0 L 440.0 396.0 L 439.0 396.0 L 438.0 395.0 L 437.0 394.0 L 436.0 393.0 L 435.0 392.0 L 434.0 392.0 L 433.0 391.0 L 433.0 390.0 L 432.0 390.0 L 431.0 389.0 L 430.0 388.0 L 429.0 387.0 L 428.0 386.0 L 427.0 386.0 L 426.0 385.0 L 425.0 384.0 L 424.0 383.0 L 423.0 382.0 L 422.0 381.0 L 421.0 380.0 L 420.0 379.0 L 419.0 378.0 L 418.0 377.0 L 417.0 377.0 L 416.0 376.0 L 415.0 375.0 L 414.0 374.0 L 413.0 373.0 L 412.0 372.0 L 411.0 371.0 L 410.0 370.0 L 409.0 369.0 L 408.0 368.0 L 407.0 367.0 L 406.0 366.0 L 405.0 365.0 L 404.0 364.0 L 403.0 363.0 L 402.0 362.0 L 401.0 361.0 L 400.0 360.0 L 399.0 359.0 L 398.0 358.0 L 397.0 357.0 L 396.0 356.0 L 395.0 355.0 L 394.0 354.0 L 393.0 353.0 L 392.0 352.0 L 391.0 351.0 L 390.0 350.0 L 389.0 349.0 L 388.0 348.0 L 387.0 347.0 L 386.0 346.0 L 385.0 345.0 L 385.0 344.0 L 384.0 344.0 L 383.0 344.0 L 382.0 343.0 L 381.0 342.0 L 380.0 341.0 L 379.0 340.0 L 378.0 339.0 L 377.0 338.0 L 376.0 337.0 L 375.0 336.0 L 374.0 335.0 L 373.0 334.0 L 372.0 333.0 L 371.0 333.0 L 370.0 332.0 L 369.0 331.0 L 368.0 330.0 L 367.0 329.0 L 366.0 328.0 L 365.0 327.0 L 364.0 327.0 L 363.0 326.0 L 362.0 325.0 L 361.0 324.0 L 360.0 323.0 L 359.0 322.0 L 358.0 321.0 L 357.0 321.0 L 356.0 320.0 L 355.0 319.0 L 354.0 318.0 L 353.0 317.0 L 352.0 317.0 L 351.0 316.0 L 350.0 315.0 L 349.0 315.0 L 348.0 314.0 L 347.0 313.0 L 346.0 312.0 L 345.0 311.0 L 344.0 310.0 L 343.0 310.0 L 342.0 309.0 L 341.0 308.0 L 340.0 307.0 L 339.0 306.0 L 338.0 306.0 L 337.0 305.0 L 336.0 304.0 L 335.0 303.0 L 334.0 303.0 L 333.0 302.0 L 332.0 301.0 L 331.0 301.0 L 330.0 300.0 L 329.0 299.0 L 328.0 299.0 L 327.0 298.0 L 326.0 297.0 L 325.0 297.0 L 324.0 296.0 L 323.0 295.0 L 322.0 295.0 L 321.0 294.0 L 320.0 294.0 L 319.0 293.0 L 318.0 292.0 L 317.0 292.0 L 316.0 291.0 L 315.0 290.0 L 314.0 290.0 L 313.0 289.0 L 312.0 289.0 L 311.0 288.0 L 310.0 288.0 L 309.0 287.0 L 308.0 286.0 L 307.0 286.0 L 306.0 285.0 L 305.0 285.0 L 304.0 284.0 L 303.0 284.0 L 302.0 283.0 L 301.0 283.0 L 300.0 282.0 L 299.0 282.0 L 298.0 281.0 L 297.0 281.0 L 296.0 280.0 L 295.0 280.0 L 294.0 280.0 L 293.0 279.0 L 292.0 279.0 L 291.0 278.0 L 290.0 278.0 L 289.0 277.0 L 288.0 277.0 L 287.0 276.0 L 286.0 276.0 L 285.0 275.0 L 284.0 275.0 L 283.0 275.0 L 282.0 274.0 L 281.0 274.0 L 280.0 274.0 L 279.0 273.0 L 278.0 273.0 L 277.0 273.0 L 276.0 272.0 L 275.0 272.0 L 274.0 272.0 L 273.0 271.0 L 272.0 271.0 L 271.0 271.0 L 270.0 270.0 L 269.0 270.0 L 268.0 270.0 L 267.0 269.0 L 266.0 269.0 L 265.0 269.0 L 264.0 269.0 L 263.0 269.0 L 262.0 268.0 L 261.0 268.0 L 260.0 268.0 L 259.0 268.0 L 258.0 267.0 L 257.0 267.0 L 256.0 267.0 L 255.0 267.0 L 254.0 266.0 L 253.0 266.0 L 252.0 266.0 L 251.0 266.0 L 250.0 265.0 L 249.0 265.0 L 248.0 265.0 L 247.0 265.0 L 246.0 265.0 L 245.0 265.0 L 244.0 264.0 L 243.0 264.0 L 242.0 264.0 L 241.0 264.0 L 240.0 264.0 L 239.0 264.0 L 238.0 264.0 L 237.0 263.0 L 236.0 263.0 L 235.0 263.0 L 234.0 263.0 L 233.0 263.0 L 232.0 263.0 L 231.0 263.0 L 230.0 262.0 L 229.0 262.0 L 228.0 262.0 L 227.0 262.0 L 226.0 262.0 L 225.0 262.0 L 224.0 262.0 L 223.0 262.0 L 222.0 262.0 L 221.0 262.0 L 220.0 262.0 L 219.0 261.0 L 218.0 261.0 L 217.0 261.0 L 216.0 261.0 L 215.0 261.0 L 214.0 261.0 L 213.0 261.0 L 212.0 261.0 L 211.0 261.0 L 210.0 261.0 L 209.0 261.0 L 208.0 261.0 L 207.0 261.0 L 206.0 261.0 L 205.0 261.0 Z"/><path d="M 128.0 231.0 L 127.0 232.0 L 126.0 233.0 L 125.0 234.0 L 125.0 235.0 L 124.0 236.0 L 123.0 237.0 L 122.0 238.0 L 122.0 239.0 L 121.0 240.0 L 120.0 241.0 L 120.0 242.0 L 119.0 243.0 L 119.0 244.0 L 118.0 245.0 L 118.0 246.0 L 117.0 247.0 L 117.0 248.0 L 117.0 249.0 L 116.0 250.0 L 116.0 251.0 L 116.0 252.0 L 116.0 253.0 L 115.0 254.0 L 115.0 255.0 L 115.0 256.0 L 115.0 257.0 L 114.0 258.0 L 114.0 259.0 L 114.0 260.0 L 114.0 261.0 L 114.0 262.0 L 114.0 263.0 L 114.0 264.0 L 114.0 265.0 L 114.0 266.0 L 114.0 267.0 L 114.0 268.0 L 115.0 269.0 L 115.0 270.0 L 115.0 271.0 L 115.0 272.0 L 115.0 273.0 L 116.0 274.0 L 116.0 275.0 L 116.0 276.0 L 117.0 277.0 L 117.0 278.0 L 118.0 279.0 L 118.0 280.0 L 119.0 281.0 L 119.0 282.0 L 120.0 283.0 L 121.0 284.0 L 121.0 285.0 L 122.0 286.0 L 123.0 287.0 L 123.0 288.0 L 124.0 289.0 L 124.0 290.0 L 124.0 291.0 L 124.0 292.0 L 124.0 293.0 L 124.0 294.0 L 124.0 295.0 L 124.0 296.0 L 123.0 297.0 L 123.0 298.0 L 123.0 299.0 L 123.0 300.0 L 123.0 301.0 L 123.0 302.0 L 122.0 303.0 L 122.0 304.0 L 122.0 305.0 L 122.0 306.0 L 122.0 307.0 L 121.0 308.0 L 121.0 309.0 L 121.0 310.0 L 121.0 311.0 L 120.0 312.0 L 120.0 313.0 L 120.0 314.0 L 119.0 315.0 L 119.0 316.0 L 119.0 317.0 L 119.0 318.0 L 118.0 319.0 L 118.0 320.0 L 118.0 321.0 L 118.0 322.0 L 117.0 323.0 L 117.0 324.0 L 117.0 325.0 L 117.0 326.0 L 116.0 327.0 L 116.0 328.0 L 116.0 329.0 L 115.0 330.0 L 115.0 331.0 L 115.0 332.0 L 115.0 333.0 L 114.0 334.0 L 114.0 335.0 L 114.0 336.0 L 113.0 337.0 L 113.0 338.0 L 112.0 339.0 L 111.0 339.0 L 110.0 339.0 L 109.0 339.0 L 108.0 339.0 L 107.0 338.0 L 107.0 337.0 L 107.0 336.0 L 107.0 335.0 L 106.0 334.0 L 106.0 333.0 L 106.0 332.0 L 106.0 331.0 L 106.0 330.0 L 106.0 329.0 L 106.0 328.0 L 106.0 327.0 L 107.0 326.0 L 107.0 325.0 L 108.0 324.0 L 108.0 323.0 L 108.0 322.0 L 109.0 321.0 L 109.0 320.0 L 109.0 319.0 L 109.0 318.0 L 109.0 317.0 L 109.0 316.0 L 110.0 315.0 L 110.0 314.0 L 110.0 313.0 L 110.0 312.0 L 110.0 311.0 L 110.0 310.0 L 110.0 309.0 L 109.0 308.0 L 109.0 307.0 L 109.0 306.0 L 109.0 305.0 L 109.0 304.0 L 108.0 303.0 L 108.0 302.0 L 107.0 301.0 L 107.0 300.0 L 106.0 299.0 L 106.0 298.0 L 105.0 297.0 L 105.0 296.0 L 104.0 295.0 L 103.0 294.0 L 102.0 293.0 L 101.0 292.0 L 100.0 291.0 L 99.0 290.0 L 98.0 289.0 L 97.0 289.0 L 96.0 288.0 L 95.0 287.0 L 94.0 287.0 L 93.0 286.0 L 92.0 286.0 L 91.0 286.0 L 90.0 285.0 L 89.0 285.0 L 88.0 284.0 L 87.0 284.0 L 86.0 284.0 L 85.0 283.0 L 84.0 283.0 L 83.0 283.0 L 82.0 283.0 L 81.0 283.0 L 80.0 283.0 L 79.0 282.0 L 78.0 282.0 L 77.0 282.0 L 76.0 282.0 L 75.0 282.0 L 74.0 282.0 L 73.0 282.0 L 72.0 282.0 L 71.0 282.0 L 70.0 282.0 L 69.0 282.0 L 68.0 282.0 L 67.0 282.0 L 66.0 282.0 L 65.0 282.0 L 64.0 282.0 L 63.0 282.0 L 62.0 282.0 L 61.0 282.0 L 60.0 282.0 L 60.0 283.0 L 60.0 284.0 L 60.0 285.0 L 61.0 286.0 L 61.0 287.0 L 61.0 288.0 L 61.0 289.0 L 61.0 290.0 L 62.0 291.0 L 62.0 292.0 L 62.0 293.0 L 62.0 294.0 L 63.0 295.0 L 63.0 296.0 L 63.0 297.0 L 63.0 298.0 L 64.0 299.0 L 64.0 300.0 L 65.0 301.0 L 65.0 302.0 L 65.0 303.0 L 66.0 304.0 L 66.0 305.0 L 67.0 306.0 L 67.0 307.0 L 68.0 308.0 L 68.0 309.0 L 69.0 310.0 L 69.0 311.0 L 70.0 312.0 L 71.0 313.0 L 71.0 314.0 L 72.0 315.0 L 73.0 316.0 L 74.0 317.0 L 75.0 318.0 L 76.0 319.0 L 77.0 320.0 L 78.0 320.0 L 79.0 321.0 L 80.0 322.0 L 81.0 322.0 L 82.0 323.0 L 83.0 324.0 L 84.0 324.0 L 85.0 325.0 L 86.0 325.0 L 87.0 325.0 L 88.0 326.0 L 89.0 326.0 L 90.0 326.0 L 91.0 327.0 L 92.0 327.0 L 93.0 327.0 L 94.0 327.0 L 95.0 328.0 L 96.0 328.0 L 97.0 328.0 L 98.0 329.0 L 99.0 329.0 L 100.0 330.0 L 101.0 330.0 L 102.0 331.0 L 102.0 332.0 L 103.0 333.0 L 103.0 334.0 L 103.0 335.0 L 104.0 336.0 L 104.0 337.0 L 104.0 338.0 L 105.0 339.0 L 105.0 340.0 L 105.0 341.0 L 105.0 342.0 L 105.0 343.0 L 106.0 344.0 L 106.0 345.0 L 106.0 346.0 L 106.0 347.0 L 106.0 348.0 L 106.0 349.0 L 106.0 350.0 L 107.0 351.0 L 107.0 352.0 L 107.0 353.0 L 107.0 354.0 L 107.0 355.0 L 106.0 356.0 L 106.0 357.0 L 106.0 358.0 L 105.0 359.0 L 105.0 360.0 L 105.0 361.0 L 104.0 362.0 L 104.0 363.0 L 103.0 364.0 L 103.0 365.0 L 103.0 366.0 L 102.0 367.0 L 102.0 368.0 L 101.0 369.0 L 101.0 370.0 L 100.0 371.0 L 100.0 372.0 L 99.0 373.0 L 99.0 374.0 L 99.0 375.0 L 98.0 376.0 L 98.0 377.0 L 97.0 378.0 L 97.0 379.0 L 96.0 380.0 L 96.0 381.0 L 95.0 382.0 L 95.0 383.0 L 94.0 384.0 L 93.0 385.0 L 93.0 386.0 L 92.0 387.0 L 92.0 388.0 L 92.0 389.0 L 93.0 389.0 L 94.0 389.0 L 94.0 388.0 L 95.0 387.0 L 96.0 386.0 L 96.0 385.0 L 97.0 384.0 L 98.0 383.0 L 99.0 382.0 L 99.0 381.0 L 100.0 380.0 L 101.0 379.0 L 102.0 378.0 L 102.0 377.0 L 103.0 376.0 L 104.0 375.0 L 105.0 374.0 L 105.0 373.0 L 106.0 372.0 L 107.0 371.0 L 108.0 370.0 L 109.0 369.0 L 110.0 368.0 L 111.0 367.0 L 111.0 366.0 L 112.0 365.0 L 113.0 364.0 L 114.0 363.0 L 114.0 362.0 L 115.0 361.0 L 116.0 360.0 L 117.0 359.0 L 118.0 358.0 L 119.0 358.0 L 120.0 357.0 L 121.0 356.0 L 122.0 356.0 L 123.0 356.0 L 124.0 356.0 L 125.0 356.0 L 126.0 357.0 L 127.0 358.0 L 128.0 359.0 L 129.0 359.0 L 130.0 360.0 L 131.0 360.0 L 132.0 361.0 L 133.0 361.0 L 134.0 361.0 L 135.0 362.0 L 136.0 362.0 L 137.0 362.0 L 138.0 362.0 L 139.0 363.0 L 140.0 363.0 L 141.0 363.0 L 142.0 363.0 L 143.0 363.0 L 144.0 363.0 L 145.0 363.0 L 146.0 363.0 L 147.0 363.0 L 148.0 363.0 L 149.0 363.0 L 150.0 363.0 L 151.0 362.0 L 152.0 362.0 L 153.0 362.0 L 154.0 362.0 L 155.0 361.0 L 156.0 361.0 L 157.0 361.0 L 158.0 360.0 L 159.0 360.0 L 160.0 360.0 L 161.0 359.0 L 162.0 359.0 L 163.0 358.0 L 164.0 358.0 L 165.0 357.0 L 166.0 357.0 L 167.0 356.0 L 168.0 355.0 L 169.0 355.0 L 170.0 354.0 L 171.0 353.0 L 172.0 353.0 L 173.0 352.0 L 174.0 351.0 L 175.0 350.0 L 176.0 349.0 L 177.0 348.0 L 178.0 347.0 L 179.0 346.0 L 179.0 345.0 L 179.0 344.0 L 179.0 343.0 L 178.0 342.0 L 177.0 341.0 L 176.0 340.0 L 175.0 340.0 L 174.0 339.0 L 173.0 338.0 L 172.0 338.0 L 171.0 337.0 L 170.0 336.0 L 169.0 336.0 L 168.0 335.0 L 167.0 335.0 L 166.0 334.0 L 165.0 334.0 L 164.0 333.0 L 163.0 333.0 L 162.0 333.0 L 161.0 333.0 L 160.0 332.0 L 159.0 332.0 L 158.0 332.0 L 157.0 332.0 L 156.0 332.0 L 155.0 332.0 L 154.0 332.0 L 153.0 332.0 L 152.0 332.0 L 151.0 332.0 L 150.0 332.0 L 149.0 332.0 L 148.0 332.0 L 147.0 332.0 L 146.0 332.0 L 145.0 332.0 L 144.0 333.0 L 143.0 333.0 L 142.0 333.0 L 141.0 334.0 L 140.0 334.0 L 139.0 334.0 L 138.0 335.0 L 137.0 335.0 L 136.0 336.0 L 135.0 337.0 L 134.0 337.0 L 133.0 338.0 L 132.0 339.0 L 131.0 340.0 L 130.0 341.0 L 129.0 342.0 L 128.0 343.0 L 127.0 344.0 L 126.0 345.0 L 125.0 346.0 L 124.0 347.0 L 124.0 348.0 L 123.0 349.0 L 122.0 350.0 L 121.0 351.0 L 120.0 351.0 L 119.0 351.0 L 118.0 351.0 L 117.0 351.0 L 116.0 350.0 L 116.0 349.0 L 116.0 348.0 L 116.0 347.0 L 116.0 346.0 L 117.0 345.0 L 117.0 344.0 L 118.0 343.0 L 118.0 342.0 L 119.0 341.0 L 119.0 340.0 L 120.0 339.0 L 120.0 338.0 L 121.0 337.0 L 122.0 336.0 L 122.0 335.0 L 123.0 334.0 L 123.0 333.0 L 124.0 332.0 L 124.0 331.0 L 125.0 330.0 L 126.0 329.0 L 126.0 328.0 L 127.0 327.0 L 128.0 326.0 L 128.0 325.0 L 129.0 324.0 L 130.0 323.0 L 131.0 322.0 L 132.0 321.0 L 133.0 320.0 L 134.0 319.0 L 135.0 318.0 L 136.0 317.0 L 137.0 317.0 L 138.0 317.0 L 139.0 317.0 L 140.0 317.0 L 141.0 317.0 L 142.0 318.0 L 143.0 318.0 L 144.0 318.0 L 145.0 319.0 L 146.0 319.0 L 147.0 319.0 L 148.0 319.0 L 149.0 320.0 L 150.0 320.0 L 151.0 320.0 L 152.0 320.0 L 153.0 320.0 L 154.0 320.0 L 155.0 320.0 L 156.0 320.0 L 157.0 320.0 L 158.0 320.0 L 159.0 320.0 L 160.0 320.0 L 161.0 320.0 L 162.0 320.0 L 163.0 320.0 L 164.0 319.0 L 165.0 319.0 L 166.0 319.0 L 167.0 318.0 L 168.0 318.0 L 169.0 317.0 L 170.0 317.0 L 171.0 316.0 L 172.0 316.0 L 173.0 315.0 L 174.0 315.0 L 175.0 314.0 L 176.0 314.0 L 177.0 313.0 L 178.0 312.0 L 179.0 311.0 L 180.0 310.0 L 181.0 309.0 L 182.0 308.0 L 183.0 307.0 L 184.0 306.0 L 184.0 305.0 L 185.0 304.0 L 186.0 303.0 L 187.0 302.0 L 187.0 301.0 L 188.0 300.0 L 189.0 299.0 L 189.0 298.0 L 190.0 297.0 L 190.0 296.0 L 191.0 295.0 L 191.0 294.0 L 191.0 293.0 L 192.0 292.0 L 192.0 291.0 L 193.0 290.0 L 193.0 289.0 L 193.0 288.0 L 192.0 288.0 L 191.0 287.0 L 190.0 287.0 L 189.0 287.0 L 188.0 286.0 L 187.0 286.0 L 186.0 286.0 L 185.0 285.0 L 184.0 285.0 L 183.0 285.0 L 182.0 285.0 L 181.0 285.0 L 180.0 285.0 L 179.0 285.0 L 178.0 284.0 L 177.0 284.0 L 176.0 284.0 L 175.0 284.0 L 174.0 284.0 L 173.0 284.0 L 172.0 284.0 L 171.0 284.0 L 170.0 284.0 L 169.0 284.0 L 168.0 284.0 L 167.0 284.0 L 166.0 284.0 L 165.0 285.0 L 164.0 285.0 L 163.0 285.0 L 162.0 285.0 L 161.0 285.0 L 160.0 285.0 L 159.0 286.0 L 158.0 286.0 L 157.0 286.0 L 156.0 287.0 L 155.0 287.0 L 154.0 288.0 L 153.0 288.0 L 152.0 289.0 L 151.0 289.0 L 150.0 290.0 L 149.0 291.0 L 148.0 291.0 L 147.0 292.0 L 146.0 293.0 L 145.0 294.0 L 145.0 295.0 L 144.0 296.0 L 143.0 297.0 L 142.0 298.0 L 141.0 299.0 L 141.0 300.0 L 140.0 301.0 L 139.0 302.0 L 139.0 303.0 L 138.0 304.0 L 137.0 305.0 L 137.0 306.0 L 136.0 307.0 L 136.0 308.0 L 135.0 309.0 L 134.0 310.0 L 134.0 311.0 L 133.0 312.0 L 133.0 313.0 L 132.0 314.0 L 131.0 315.0 L 130.0 316.0 L 130.0 317.0 L 129.0 318.0 L 128.0 319.0 L 128.0 320.0 L 127.0 321.0 L 126.0 321.0 L 125.0 321.0 L 124.0 321.0 L 123.0 321.0 L 122.0 320.0 L 122.0 319.0 L 122.0 318.0 L 122.0 317.0 L 122.0 316.0 L 123.0 315.0 L 123.0 314.0 L 123.0 313.0 L 123.0 312.0 L 124.0 311.0 L 124.0 310.0 L 124.0 309.0 L 124.0 308.0 L 125.0 307.0 L 125.0 306.0 L 125.0 305.0 L 125.0 304.0 L 126.0 303.0 L 126.0 302.0 L 126.0 301.0 L 126.0 300.0 L 127.0 299.0 L 127.0 298.0 L 127.0 297.0 L 127.0 296.0 L 128.0 295.0 L 128.0 294.0 L 128.0 293.0 L 129.0 292.0 L 130.0 291.0 L 130.0 290.0 L 131.0 289.0 L 132.0 289.0 L 133.0 288.0 L 134.0 287.0 L 135.0 286.0 L 136.0 285.0 L 136.0 284.0 L 137.0 283.0 L 138.0 282.0 L 139.0 281.0 L 139.0 280.0 L 140.0 279.0 L 140.0 278.0 L 141.0 277.0 L 142.0 276.0 L 142.0 275.0 L 143.0 274.0 L 143.0 273.0 L 143.0 272.0 L 144.0 271.0 L 144.0 270.0 L 144.0 269.0 L 144.0 268.0 L 145.0 267.0 L 145.0 266.0 L 145.0 265.0 L 145.0 264.0 L 145.0 263.0 L 145.0 262.0 L 145.0 261.0 L 145.0 260.0 L 145.0 259.0 L 145.0 258.0 L 145.0 257.0 L 145.0 256.0 L 145.0 255.0 L 144.0 254.0 L 144.0 253.0 L 144.0 252.0 L 144.0 251.0 L 143.0 250.0 L 143.0 249.0 L 143.0 248.0 L 142.0 247.0 L 142.0 246.0 L 141.0 245.0 L 140.0 244.0 L 140.0 243.0 L 139.0 242.0 L 138.0 241.0 L 138.0 240.0 L 137.0 239.0 L 136.0 238.0 L 135.0 237.0 L 134.0 236.0 L 133.0 235.0 L 133.0 234.0 L 132.0 233.0 L 131.0 232.0 L 130.0 231.0 L 129.0 231.0 Z"/><path d="M 349.0 53.0 L 349.0 54.0 L 349.0 55.0 L 350.0 55.0 L 351.0 55.0 L 352.0 55.0 L 353.0 55.0 L 354.0 56.0 L 355.0 56.0 L 356.0 56.0 L 357.0 56.0 L 358.0 56.0 L 359.0 56.0 L 360.0 56.0 L 361.0 57.0 L 362.0 57.0 L 363.0 57.0 L 364.0 58.0 L 365.0 58.0 L 366.0 59.0 L 367.0 59.0 L 368.0 60.0 L 369.0 60.0 L 370.0 61.0 L 371.0 61.0 L 372.0 62.0 L 373.0 63.0 L 374.0 64.0 L 375.0 65.0 L 376.0 66.0 L 377.0 67.0 L 378.0 68.0 L 378.0 69.0 L 379.0 70.0 L 380.0 71.0 L 380.0 72.0 L 381.0 73.0 L 381.0 74.0 L 381.0 75.0 L 382.0 76.0 L 382.0 77.0 L 382.0 78.0 L 383.0 79.0 L 383.0 80.0 L 383.0 81.0 L 383.0 82.0 L 383.0 83.0 L 384.0 84.0 L 384.0 85.0 L 384.0 86.0 L 384.0 87.0 L 384.0 88.0 L 384.0 89.0 L 384.0 90.0 L 384.0 91.0 L 384.0 92.0 L 384.0 93.0 L 384.0 94.0 L 384.0 95.0 L 385.0 96.0 L 385.0 97.0 L 385.0 98.0 L 385.0 99.0 L 385.0 100.0 L 385.0 101.0 L 385.0 102.0 L 385.0 103.0 L 385.0 104.0 L 385.0 105.0 L 385.0 106.0 L 385.0 107.0 L 385.0 108.0 L 385.0 109.0 L 385.0 110.0 L 385.0 111.0 L 385.0 112.0 L 385.0 113.0 L 385.0 114.0 L 385.0 115.0 L 385.0 116.0 L 385.0 117.0 L 385.0 118.0 L 385.0 119.0 L 385.0 120.0 L 385.0 121.0 L 385.0 122.0 L 385.0 123.0 L 385.0 124.0 L 385.0 125.0 L 385.0 126.0 L 385.0 127.0 L 385.0 128.0 L 385.0 129.0 L 385.0 130.0 L 385.0 131.0 L 385.0 132.0 L 385.0 133.0 L 385.0 134.0 L 385.0 135.0 L 385.0 136.0 L 385.0 137.0 L 385.0 138.0 L 385.0 139.0 L 385.0 140.0 L 385.0 141.0 L 385.0 142.0 L 385.0 143.0 L 385.0 144.0 L 385.0 145.0 L 385.0 146.0 L 385.0 147.0 L 385.0 148.0 L 385.0 149.0 L 385.0 150.0 L 385.0 151.0 L 385.0 152.0 L 385.0 153.0 L 385.0 154.0 L 385.0 155.0 L 385.0 156.0 L 385.0 157.0 L 385.0 158.0 L 385.0 159.0 L 385.0 160.0 L 385.0 161.0 L 385.0 162.0 L 385.0 163.0 L 385.0 164.0 L 385.0 165.0 L 385.0 166.0 L 385.0 167.0 L 385.0 168.0 L 385.0 169.0 L 385.0 170.0 L 385.0 171.0 L 385.0 172.0 L 385.0 173.0 L 385.0 174.0 L 385.0 175.0 L 385.0 176.0 L 385.0 177.0 L 385.0 178.0 L 385.0 179.0 L 385.0 180.0 L 385.0 181.0 L 385.0 182.0 L 385.0 183.0 L 385.0 184.0 L 385.0 185.0 L 385.0 186.0 L 385.0 187.0 L 385.0 188.0 L 385.0 189.0 L 385.0 190.0 L 385.0 191.0 L 385.0 192.0 L 385.0 193.0 L 385.0 194.0 L 385.0 195.0 L 385.0 196.0 L 385.0 197.0 L 385.0 198.0 L 385.0 199.0 L 385.0 200.0 L 385.0 201.0 L 385.0 202.0 L 385.0 203.0 L 385.0 204.0 L 385.0 205.0 L 385.0 206.0 L 385.0 207.0 L 385.0 208.0 L 385.0 209.0 L 385.0 210.0 L 385.0 211.0 L 385.0 212.0 L 385.0 213.0 L 385.0 214.0 L 385.0 215.0 L 385.0 216.0 L 385.0 217.0 L 385.0 218.0 L 385.0 219.0 L 385.0 220.0 L 385.0 221.0 L 385.0 222.0 L 385.0 223.0 L 385.0 224.0 L 385.0 225.0 L 385.0 226.0 L 385.0 227.0 L 385.0 228.0 L 385.0 229.0 L 385.0 230.0 L 385.0 231.0 L 385.0 232.0 L 385.0 233.0 L 385.0 234.0 L 385.0 235.0 L 385.0 236.0 L 385.0 237.0 L 385.0 238.0 L 385.0 239.0 L 385.0 240.0 L 385.0 241.0 L 385.0 242.0 L 385.0 243.0 L 385.0 244.0 L 385.0 245.0 L 385.0 246.0 L 385.0 247.0 L 385.0 248.0 L 385.0 249.0 L 385.0 250.0 L 385.0 251.0 L 385.0 252.0 L 385.0 253.0 L 385.0 254.0 L 385.0 255.0 L 385.0 256.0 L 385.0 257.0 L 385.0 258.0 L 385.0 259.0 L 385.0 260.0 L 385.0 261.0 L 385.0 262.0 L 385.0 263.0 L 385.0 264.0 L 385.0 265.0 L 385.0 266.0 L 385.0 267.0 L 385.0 268.0 L 385.0 269.0 L 385.0 270.0 L 385.0 271.0 L 385.0 272.0 L 385.0 273.0 L 385.0 274.0 L 385.0 275.0 L 385.0 276.0 L 385.0 277.0 L 385.0 278.0 L 385.0 279.0 L 385.0 280.0 L 385.0 281.0 L 385.0 282.0 L 385.0 283.0 L 385.0 284.0 L 385.0 285.0 L 385.0 286.0 L 385.0 287.0 L 385.0 288.0 L 385.0 289.0 L 385.0 290.0 L 385.0 291.0 L 385.0 292.0 L 385.0 293.0 L 385.0 294.0 L 385.0 295.0 L 385.0 296.0 L 385.0 297.0 L 385.0 298.0 L 385.0 299.0 L 385.0 300.0 L 385.0 301.0 L 385.0 302.0 L 385.0 303.0 L 385.0 304.0 L 385.0 305.0 L 385.0 306.0 L 385.0 307.0 L 385.0 308.0 L 385.0 309.0 L 385.0 310.0 L 385.0 311.0 L 385.0 312.0 L 385.0 313.0 L 385.0 314.0 L 385.0 315.0 L 385.0 316.0 L 385.0 317.0 L 385.0 318.0 L 385.0 319.0 L 385.0 320.0 L 385.0 321.0 L 385.0 322.0 L 385.0 323.0 L 385.0 324.0 L 385.0 325.0 L 385.0 326.0 L 385.0 327.0 L 385.0 328.0 L 385.0 329.0 L 385.0 330.0 L 385.0 331.0 L 385.0 332.0 L 385.0 333.0 L 385.0 334.0 L 385.0 335.0 L 385.0 336.0 L 386.0 337.0 L 387.0 338.0 L 388.0 339.0 L 388.0 340.0 L 389.0 340.0 L 390.0 340.0 L 391.0 341.0 L 392.0 342.0 L 393.0 343.0 L 394.0 344.0 L 395.0 345.0 L 396.0 346.0 L 397.0 347.0 L 398.0 348.0 L 399.0 349.0 L 400.0 350.0 L 401.0 351.0 L 402.0 352.0 L 403.0 353.0 L 404.0 354.0 L 405.0 355.0 L 406.0 356.0 L 407.0 357.0 L 408.0 358.0 L 409.0 359.0 L 410.0 360.0 L 411.0 361.0 L 412.0 362.0 L 413.0 363.0 L 414.0 364.0 L 415.0 365.0 L 416.0 365.0 L 417.0 366.0 L 418.0 367.0 L 419.0 368.0 L 420.0 369.0 L 421.0 370.0 L 422.0 371.0 L 423.0 372.0 L 424.0 373.0 L 425.0 374.0 L 426.0 375.0 L 427.0 376.0 L 428.0 377.0 L 429.0 378.0 L 430.0 379.0 L 431.0 380.0 L 432.0 381.0 L 433.0 381.0 L 434.0 382.0 L 435.0 383.0 L 436.0 384.0 L 437.0 384.0 L 438.0 384.0 L 438.0 383.0 L 438.0 382.0 L 438.0 381.0 L 438.0 380.0 L 438.0 379.0 L 438.0 378.0 L 438.0 377.0 L 438.0 376.0 L 438.0 375.0 L 438.0 374.0 L 438.0 373.0 L 438.0 372.0 L 438.0 371.0 L 438.0 370.0 L 438.0 369.0 L 438.0 368.0 L 438.0 367.0 L 438.0 366.0 L 438.0 365.0 L 438.0 364.0 L 438.0 363.0 L 438.0 362.0 L 438.0 361.0 L 438.0 360.0 L 438.0 359.0 L 438.0 358.0 L 438.0 357.0 L 438.0 356.0 L 438.0 355.0 L 438.0 354.0 L 438.0 353.0 L 438.0 352.0 L 438.0 351.0 L 438.0 350.0 L 438.0 349.0 L 438.0 348.0 L 438.0 347.0 L 438.0 346.0 L 438.0 345.0 L 438.0 344.0 L 438.0 343.0 L 438.0 342.0 L 438.0 341.0 L 438.0 340.0 L 438.0 339.0 L 438.0 338.0 L 438.0 337.0 L 438.0 336.0 L 438.0 335.0 L 438.0 334.0 L 438.0 333.0 L 438.0 332.0 L 438.0 331.0 L 438.0 330.0 L 438.0 329.0 L 438.0 328.0 L 438.0 327.0 L 438.0 326.0 L 438.0 325.0 L 438.0 324.0 L 438.0 323.0 L 438.0 322.0 L 438.0 321.0 L 438.0 320.0 L 438.0 319.0 L 438.0 318.0 L 438.0 317.0 L 438.0 316.0 L 438.0 315.0 L 438.0 314.0 L 438.0 313.0 L 438.0 312.0 L 438.0 311.0 L 438.0 310.0 L 438.0 309.0 L 438.0 308.0 L 438.0 307.0 L 438.0 306.0 L 438.0 305.0 L 438.0 304.0 L 438.0 303.0 L 438.0 302.0 L 438.0 301.0 L 438.0 300.0 L 438.0 299.0 L 438.0 298.0 L 438.0 297.0 L 438.0 296.0 L 438.0 295.0 L 438.0 294.0 L 438.0 293.0 L 438.0 292.0 L 438.0 291.0 L 438.0 290.0 L 438.0 289.0 L 438.0 288.0 L 438.0 287.0 L 438.0 286.0 L 438.0 285.0 L 438.0 284.0 L 438.0 283.0 L 438.0 282.0 L 438.0 281.0 L 438.0 280.0 L 438.0 279.0 L 438.0 278.0 L 438.0 277.0 L 438.0 276.0 L 438.0 275.0 L 438.0 274.0 L 438.0 273.0 L 438.0 272.0 L 438.0 271.0 L 438.0 270.0 L 438.0 269.0 L 438.0 268.0 L 438.0 267.0 L 438.0 266.0 L 438.0 265.0 L 438.0 264.0 L 438.0 263.0 L 438.0 262.0 L 438.0 261.0 L 438.0 260.0 L 438.0 259.0 L 438.0 258.0 L 438.0 257.0 L 438.0 256.0 L 438.0 255.0 L 438.0 254.0 L 438.0 253.0 L 438.0 252.0 L 438.0 251.0 L 438.0 250.0 L 438.0 249.0 L 438.0 248.0 L 438.0 247.0 L 438.0 246.0 L 438.0 245.0 L 438.0 244.0 L 438.0 243.0 L 438.0 242.0 L 438.0 241.0 L 438.0 240.0 L 438.0 239.0 L 438.0 238.0 L 438.0 237.0 L 438.0 236.0 L 438.0 235.0 L 438.0 234.0 L 438.0 233.0 L 438.0 232.0 L 438.0 231.0 L 438.0 230.0 L 438.0 229.0 L 438.0 228.0 L 438.0 227.0 L 438.0 226.0 L 438.0 225.0 L 438.0 224.0 L 438.0 223.0 L 438.0 222.0 L 438.0 221.0 L 438.0 220.0 L 438.0 219.0 L 438.0 218.0 L 438.0 217.0 L 438.0 216.0 L 438.0 215.0 L 438.0 214.0 L 438.0 213.0 L 438.0 212.0 L 438.0 211.0 L 438.0 210.0 L 438.0 209.0 L 438.0 208.0 L 438.0 207.0 L 438.0 206.0 L 438.0 205.0 L 438.0 204.0 L 438.0 203.0 L 438.0 202.0 L 438.0 201.0 L 438.0 200.0 L 438.0 199.0 L 438.0 198.0 L 438.0 197.0 L 438.0 196.0 L 438.0 195.0 L 438.0 194.0 L 438.0 193.0 L 438.0 192.0 L 438.0 191.0 L 438.0 190.0 L 438.0 189.0 L 438.0 188.0 L 438.0 187.0 L 438.0 186.0 L 438.0 185.0 L 438.0 184.0 L 438.0 183.0 L 438.0 182.0 L 438.0 181.0 L 438.0 180.0 L 438.0 179.0 L 438.0 178.0 L 438.0 177.0 L 438.0 176.0 L 438.0 175.0 L 438.0 174.0 L 438.0 173.0 L 438.0 172.0 L 438.0 171.0 L 438.0 170.0 L 438.0 169.0 L 438.0 168.0 L 438.0 167.0 L 438.0 166.0 L 438.0 165.0 L 438.0 164.0 L 438.0 163.0 L 438.0 162.0 L 438.0 161.0 L 438.0 160.0 L 438.0 159.0 L 438.0 158.0 L 438.0 157.0 L 438.0 156.0 L 438.0 155.0 L 438.0 154.0 L 438.0 153.0 L 438.0 152.0 L 438.0 151.0 L 438.0 150.0 L 438.0 149.0 L 438.0 148.0 L 438.0 147.0 L 438.0 146.0 L 438.0 145.0 L 438.0 144.0 L 438.0 143.0 L 438.0 142.0 L 438.0 141.0 L 438.0 140.0 L 438.0 139.0 L 438.0 138.0 L 438.0 137.0 L 438.0 136.0 L 438.0 135.0 L 438.0 134.0 L 438.0 133.0 L 438.0 132.0 L 438.0 131.0 L 438.0 130.0 L 438.0 129.0 L 438.0 128.0 L 438.0 127.0 L 438.0 126.0 L 438.0 125.0 L 438.0 124.0 L 438.0 123.0 L 438.0 122.0 L 438.0 121.0 L 438.0 120.0 L 438.0 119.0 L 438.0 118.0 L 438.0 117.0 L 438.0 116.0 L 438.0 115.0 L 438.0 114.0 L 438.0 113.0 L 438.0 112.0 L 438.0 111.0 L 438.0 110.0 L 438.0 109.0 L 438.0 108.0 L 438.0 107.0 L 438.0 106.0 L 438.0 105.0 L 438.0 104.0 L 438.0 103.0 L 438.0 102.0 L 438.0 101.0 L 438.0 100.0 L 438.0 99.0 L 438.0 98.0 L 438.0 97.0 L 438.0 96.0 L 438.0 95.0 L 438.0 94.0 L 438.0 93.0 L 438.0 92.0 L 438.0 91.0 L 438.0 90.0 L 438.0 89.0 L 439.0 88.0 L 439.0 87.0 L 439.0 86.0 L 439.0 85.0 L 439.0 84.0 L 439.0 83.0 L 439.0 82.0 L 440.0 81.0 L 440.0 80.0 L 440.0 79.0 L 440.0 78.0 L 441.0 77.0 L 441.0 76.0 L 441.0 75.0 L 442.0 74.0 L 442.0 73.0 L 443.0 72.0 L 443.0 71.0 L 444.0 70.0 L 444.0 69.0 L 445.0 68.0 L 446.0 67.0 L 447.0 66.0 L 448.0 65.0 L 449.0 64.0 L 450.0 63.0 L 451.0 62.0 L 452.0 61.0 L 453.0 61.0 L 454.0 60.0 L 455.0 60.0 L 456.0 59.0 L 457.0 59.0 L 458.0 58.0 L 459.0 58.0 L 460.0 57.0 L 461.0 57.0 L 462.0 57.0 L 463.0 57.0 L 464.0 56.0 L 465.0 56.0 L 466.0 56.0 L 467.0 56.0 L 468.0 56.0 L 469.0 56.0 L 470.0 56.0 L 471.0 55.0 L 472.0 55.0 L 473.0 55.0 L 474.0 55.0 L 475.0 55.0 L 476.0 55.0 L 477.0 55.0 L 478.0 55.0 L 479.0 55.0 L 479.0 54.0 L 479.0 53.0 L 478.0 53.0 L 477.0 53.0 L 476.0 53.0 L 475.0 53.0 L 474.0 53.0 L 473.0 53.0 L 472.0 53.0 L 471.0 53.0 L 470.0 53.0 L 469.0 53.0 L 468.0 53.0 L 467.0 53.0 L 466.0 53.0 L 465.0 53.0 L 464.0 53.0 L 463.0 53.0 L 462.0 53.0 L 461.0 53.0 L 460.0 53.0 L 459.0 53.0 L 458.0 53.0 L 457.0 53.0 L 456.0 53.0 L 455.0 53.0 L 454.0 53.0 L 453.0 53.0 L 452.0 53.0 L 451.0 53.0 L 450.0 53.0 L 449.0 53.0 L 448.0 53.0 L 447.0 53.0 L 446.0 53.0 L 445.0 53.0 L 444.0 53.0 L 443.0 53.0 L 442.0 53.0 L 441.0 53.0 L 440.0 53.0 L 439.0 53.0 L 438.0 53.0 L 437.0 53.0 L 436.0 53.0 L 435.0 53.0 L 434.0 53.0 L 433.0 53.0 L 432.0 53.0 L 431.0 53.0 L 430.0 53.0 L 429.0 53.0 L 428.0 53.0 L 427.0 53.0 L 426.0 53.0 L 425.0 53.0 L 424.0 53.0 L 423.0 53.0 L 422.0 53.0 L 421.0 53.0 L 420.0 53.0 L 419.0 53.0 L 418.0 53.0 L 417.0 53.0 L 416.0 53.0 L 415.0 53.0 L 414.0 53.0 L 413.0 53.0 L 412.0 53.0 L 411.0 53.0 L 410.0 53.0 L 409.0 53.0 L 408.0 53.0 L 407.0 53.0 L 406.0 53.0 L 405.0 53.0 L 404.0 53.0 L 403.0 53.0 L 402.0 53.0 L 401.0 53.0 L 400.0 53.0 L 399.0 53.0 L 398.0 53.0 L 397.0 53.0 L 396.0 53.0 L 395.0 53.0 L 394.0 53.0 L 393.0 53.0 L 392.0 53.0 L 391.0 53.0 L 390.0 53.0 L 389.0 53.0 L 388.0 53.0 L 387.0 53.0 L 386.0 53.0 L 385.0 53.0 L 384.0 53.0 L 383.0 53.0 L 382.0 53.0 L 381.0 53.0 L 380.0 53.0 L 379.0 53.0 L 378.0 53.0 L 377.0 53.0 L 376.0 53.0 L 375.0 53.0 L 374.0 53.0 L 373.0 53.0 L 372.0 53.0 L 371.0 53.0 L 370.0 53.0 L 369.0 53.0 L 368.0 53.0 L 367.0 53.0 L 366.0 53.0 L 365.0 53.0 L 364.0 53.0 L 363.0 53.0 L 362.0 53.0 L 361.0 53.0 L 360.0 53.0 L 359.0 53.0 L 358.0 53.0 L 357.0 53.0 L 356.0 53.0 L 355.0 53.0 L 354.0 53.0 L 353.0 53.0 L 352.0 53.0 L 351.0 53.0 L 350.0 53.0 Z"/>
  </g>
</svg>
